<svg width="20" height="20" viewBox="0 0 20 20" fill="none" xmlns="http://www.w3.org/2000/svg">
<path d="M15.3034 12.9467L14.125 11.7667L15.3034 10.5883C15.6931 10.202 16.0026 9.74258 16.2143 9.23633C16.4259 8.73008 16.5355 8.18701 16.5367 7.6383C16.5379 7.08959 16.4307 6.54605 16.2213 6.03888C16.0118 5.53171 15.7043 5.0709 15.3163 4.6829C14.9283 4.2949 14.4675 3.98736 13.9603 3.77794C13.4531 3.56851 12.9096 3.46132 12.3609 3.46252C11.8122 3.46372 11.2691 3.57329 10.7629 3.78494C10.2566 3.99658 9.79716 4.30614 9.41086 4.69583L8.23253 5.875L7.05336 4.69666L8.23336 3.51833C9.32738 2.42431 10.8112 1.8097 12.3584 1.8097C13.9055 1.8097 15.3893 2.42431 16.4834 3.51833C17.5774 4.61235 18.192 6.09616 18.192 7.64333C18.192 9.19051 17.5774 10.6743 16.4834 11.7683L15.3034 12.9467ZM12.9467 15.3033L11.7675 16.4817C10.6735 17.5757 9.18971 18.1903 7.64253 18.1903C6.09536 18.1903 4.61155 17.5757 3.51753 16.4817C2.42351 15.3876 1.8089 13.9038 1.8089 12.3567C1.8089 10.8095 2.42351 9.32568 3.51753 8.23166L4.6967 7.05333L5.87503 8.23333L4.6967 9.41166C4.307 9.79796 3.99745 10.2574 3.7858 10.7637C3.57416 11.2699 3.46459 11.813 3.46339 12.3617C3.46219 12.9104 3.56937 13.4539 3.7788 13.9611C3.98823 14.4683 4.29577 14.9291 4.68377 15.3171C5.07176 15.7051 5.53257 16.0126 6.03974 16.2221C6.54692 16.4315 7.09046 16.5387 7.63917 16.5375C8.18788 16.5363 8.73094 16.4267 9.23719 16.2151C9.74344 16.0034 10.2029 15.6939 10.5892 15.3042L11.7675 14.1258L12.9467 15.3033ZM12.3567 6.46416L13.5359 7.64333L7.64336 13.535L6.4642 12.3567L12.3567 6.46416Z" fill="url(#paint0_linear_650_465)"/>
<defs>
<linearGradient id="paint0_linear_650_465" x1="1.8089" y1="1.8097" x2="18.1895" y2="18.1928" gradientUnits="userSpaceOnUse">
<stop stop-color="#33CC9B"/>
<stop offset="1" stop-color="#33CC74"/>
</linearGradient>
</defs>
</svg>
